SplineFontDB: 3.0
FontName: SortsMillWalbaum6-Italic
FullName: Sorts Mill Walbaum 6-point Italic
FamilyName: SortsMillWalbaum6
Weight: Book
Copyright: Copyright (c) 2009 Barry Schwartz\n\nPermission is hereby granted, free of charge, to any person\nobtaining a copy of this software and associated documentation\nfiles (the "Software"), to deal in the Software without\nrestriction, including without limitation the rights to use,\ncopy, modify, merge, publish, distribute, sublicense, and/or sell\ncopies of the Software, and to permit persons to whom the\nSoftware is furnished to do so, subject to the following\nconditions:\n\nThe above copyright notice and this permission notice shall be\nincluded in all copies or substantial portions of the Software.\n\nTHE SOFTWARE IS PROVIDED "AS IS", WITHOUT WARRANTY OF ANY KIND,\nEXPRESS OR IMPLIED, INCLUDING BUT NOT LIMITED TO THE WARRANTIES\nOF MERCHANTABILITY, FITNESS FOR A PARTICULAR PURPOSE AND\nNONINFRINGEMENT. IN NO EVENT SHALL THE AUTHORS OR COPYRIGHT\nHOLDERS BE LIABLE FOR ANY CLAIM, DAMAGES OR OTHER LIABILITY,\nWHETHER IN AN ACTION OF CONTRACT, TORT OR OTHERWISE, ARISING\nFROM, OUT OF OR IN CONNECTION WITH THE SOFTWARE OR THE USE OR\nOTHER DEALINGS IN THE SOFTWARE.
UComments: "2009-7-28: Created." 
Version: 001.000
ItalicAngle: -12
UnderlinePosition: -204
UnderlineWidth: 102
Ascent: 1472
Descent: 576
LayerCount: 3
Layer: 0 0 "Back"  1
Layer: 1 0 "Fore"  0
Layer: 2 0 "backup"  1
NeedsXUIDChange: 1
XUID: [1021 658 797806517 12611104]
FSType: 0
OS2Version: 0
OS2_WeightWidthSlopeOnly: 0
OS2_UseTypoMetrics: 1
CreationTime: 1248824893
ModificationTime: 1249080461
OS2TypoAscent: 0
OS2TypoAOffset: 1
OS2TypoDescent: 0
OS2TypoDOffset: 1
OS2TypoLinegap: 184
OS2WinAscent: 0
OS2WinAOffset: 1
OS2WinDescent: 0
OS2WinDOffset: 1
HheadAscent: 0
HheadAOffset: 1
HheadDescent: 0
HheadDOffset: 1
DEI: 91125
Encoding: UnicodeBmp
UnicodeInterp: none
NameList: Adobe Glyph List
DisplaySize: -72
AntiAlias: 1
FitToEm: 1
WinInfo: 88 8 6

StartChar: y
Encoding: 121 121 0
Width: 1320
VWidth: 0
Flags: W
HStem: -510 104<-21.6577 229.425> 642 245<1154.31 1330.13> 720 152<338.423 591>
VStem: -131 215<-401.344 -267.957>
LayerCount: 3
Fore
SplineSet
1134 708 m 1xd0
 879 521 716 190 562 -75 c 0
 502 -178 351 -510 50 -510 c 0
 -93.3154296875 -510 -131 -424.314453125 -131 -358 c 0
 -131 -281 -81 -245 -29 -245 c 0
 26 -245 84 -286 84 -361 c 0
 84 -374 84 -388 82 -402 c 1
 91 -406 103 -406 115 -406 c 0
 244 -406 517 -192 517 307 c 0
 517 591 473 720 396 720 c 0
 340 720 265 651 177 524 c 0
 155 493 143 490 133 490 c 0
 121 490 92 491 92 525 c 0
 92 587 278 872 478 872 c 0xb0
 704 872 688 444 697 336 c 1
 744 428 896 636 1074 804 c 0
 1140 867 1195 887 1239 887 c 0
 1314 887 1370 804 1370 757 c 0
 1370 700 1321 642 1248 642 c 0
 1203 642 1174 662 1134 708 c 1xd0
EndSplineSet
Validated: 524289
EndChar

StartChar: Q
Encoding: 81 81 1
Width: 1593
VWidth: 0
Flags: W
HStem: -634 54<814.334 1108> -48 58<469.606 776.47> 1500 50<813.598 1091.41>
VStem: 82 214<313.466 678.395> 1300 205<810.332 1218.68>
LayerCount: 3
Fore
SplineSet
82 569 m 0
 82 941 425 1550 931 1550 c 0
 1389 1550 1505 1240 1505 952 c 0
 1505 809 1463 588 1397 466 c 0
 1216 124 950 -48 652 -48 c 0
 591 -48 534 -44 468 -38 c 9
 545 -110 596 -142 664 -222 c 0
 765 -341 717 -450 812 -558 c 16
 830 -578 854 -580 883 -580 c 2
 1108 -580 l 9
 1108 -634 l 17
 875 -634 l 2
 418 -634 519 -150 415 -36 c 0
 391 -8 368 12 346 29 c 0
 345 30 82 169 82 569 c 0
296 358 m 0
 296 96 412 10 588 10 c 0
 774 10 935 80 1037 216 c 0
 1185 412 1300 978 1300 1074 c 0
 1300 1466 1077 1500 953 1500 c 0
 815 1500 696 1438 599 1332 c 0
 490 1213 296 665 296 358 c 0
EndSplineSet
Validated: 1
EndChar

StartChar: O
Encoding: 79 79 2
Width: 1545
VWidth: 0
Flags: W
HStem: -32 46<574.291 864.477> 1493 35<885.881 1134.72>
VStem: 161 225<295.146 669.917> 1375 195<852.754 1209.76>
LayerCount: 3
Fore
SplineSet
161 540 m 0
 161 893 498 1528 1008 1528 c 0
 1416 1528 1570 1249 1570 973 c 0
 1570 337 1021 -32 728 -32 c 0
 622 -32 161 26 161 540 c 0
386 352 m 0
 386 90 547 14 709 14 c 0
 895 14 983 80 1085 216 c 0
 1233 412 1375 951 1375 1138 c 0
 1375 1400 1183 1493 1020 1493 c 0
 826 1493 666 1445 487 883 c 0
 429 701 386 504 386 352 c 0
EndSplineSet
Validated: 1
EndChar

StartChar: A
Encoding: 65 65 3
Width: 1694
VWidth: 0
Flags: W
HStem: 0 54<72 216 296 576 824 1058 1268 1500> 636 54<864 1226>
LayerCount: 3
Fore
SplineSet
72 0 m 25
 72 54 l 25
 216 54 l 17
 1417 1375 1535 1502 1584 1502 c 0
 1591 1502 1606 1498 1606 1482 c 0
 1606 1399 1555 1192 1268 54 c 9
 1500 54 l 25
 1500 0 l 17
 824 0 l 9
 824 54 l 25
 1058 54 l 25
 1226 636 l 25
 821 636 l 25
 296 54 l 25
 576 54 l 25
 576 0 l 25
 72 0 l 25
864 690 m 9
 1242 690 l 17
 1423 1306 l 1
 864 690 l 9
EndSplineSet
Validated: 1
EndChar

StartChar: x
Encoding: 120 120 4
Width: 1128
VWidth: 0
Flags: W
HStem: -9 105<650.518 849.977> 14 90<222 332.435> 612 238<937.594 1116.5> 766 103<362.882 567.953>
VStem: 23 207<107.031 227.94>
LayerCount: 3
Fore
SplineSet
728 96 m 0xa8
 881 96 941 254 985 254 c 0
 996 254 1017 247 1017 219 c 0
 1017 154 860 -9 692 -9 c 0xa8
 500 -9 463 151 463 156 c 1
 423 112 316 14 173 14 c 0
 108 14 23 60 23 138 c 0
 23 205 77 252 137 252 c 0
 179 252 230 208 230 168 c 0
 230 112 222 104 222 104 c 1
 242 105 309 103 419 234 c 0
 460 283 581 500 581 666 c 0
 581 730 543 766 486 766 c 0
 417 766 321 713 236 594 c 0
 225 579 211 570 196 570 c 0
 176 570 149 587 149 619 c 0
 149 664 315 869 530 869 c 0x58
 609 869 700 846 723 712 c 1
 818 810 921 850 1002 850 c 0
 1101 850 1148 788 1148 727 c 0
 1148 669 1105 612 1026 612 c 0
 986 612 934 636 902 717 c 1
 853 703 809 660 770 603 c 0
 682 474 626 278 626 207 c 0
 626 147 683 96 728 96 c 0xa8
EndSplineSet
Validated: 1
EndChar

StartChar: z
Encoding: 122 122 5
Width: 1045
VWidth: 0
Flags: W
HStem: -37 21G<101.5 124.5> -22 183<412.697 680.908> 667 193<270.545 675>
VStem: 817 111<219.224 373.374>
LayerCount: 3
Fore
SplineSet
64 -3 m 0xb0
 64 5 70 15 88 34 c 2
 675 667 l 1
 311 667 l 2
 286 667 286 663 274 632 c 2
 229 518 l 2
 215 482 193 471 175 471 c 0
 155 471 140 484 140 506 c 0
 140 517 144 526 152 548 c 2
 263 824 l 2
 277 857 287 860 307 860 c 0
 536 860 666 860 895 860 c 0
 922 860 919 860 930 835 c 0
 932 828 935 822 935 816 c 0
 935 804 921 795 881 753 c 2
 332 178 l 1
 413 192 422 193 448 193 c 0
 526 193 581 161 637 161 c 0
 708 161 766 190 794 248 c 0
 805 271 808 290 817 321 c 0
 824 345 849 377 878 377 c 0
 907 377 928 363 928 314 c 0
 928 162 693 -22 513 -22 c 0x70
 409 -22 350 54 281 54 c 0
 177 54 140 -37 109 -37 c 0
 94 -37 64 -15 64 -3 c 0xb0
EndSplineSet
Validated: 1
Layer: 2
SplineSet
78 -3 m 4
 78 5 84 16 101 34 c 6
 656 647 l 5
 302 647 l 6
 277 647 279 643 266 612 c 6
 223 513 l 6
 208 477 198 471 185 471 c 4
 141 471 137 487 137 506 c 4
 137 517 140 526 147 548 c 6
 249 824 l 6
 262 857 271 860 291 860 c 4
 520 860 650 860 879 860 c 4
 906 860 903 857 915 832 c 4
 917 825 921 822 921 816 c 4
 921 804 907 795 869 753 c 6
 330 178 l 5
 410.888888889 192.222222222 430.148148148 193.012345679 455.903978052 193.012345679 c 4
 533.689569518 193.012345679 589.52794161 161 646 161 c 4
 717 161 774 190 800 248 c 4
 810 271 816 299 816 331 c 4
 816 371.954475374 845.190429688 386.625 874.415039062 386.625 c 4
 903.706054688 386.625 933.029786236 371.8416771 933.029786236 313.831164537 c 4
 933.029786236 163.127538218 707.524792196 -22 528 -22 c 4
 424 -22 362 54 293 54 c 4
 189 54 156 -37 125 -37 c 4
 110 -37 78 -15 78 -3 c 4
EndSplineSet
EndChar

StartChar: w
Encoding: 119 119 6
Width: 1533
VWidth: 0
Flags: W
HStem: -32 58<256.685 406.568 827.669 990.029> 818 54<49.0149 254>
VStem: 94 144<36.2409 323.196> 658 153<34.6563 243.529> 864 175<803 867.108> 1459 79<492.98 764>
LayerCount: 3
Fore
SplineSet
49 844 m 0
 49 868 66 872 73 872 c 2
 407 872 l 2
 425 872 432 870 432 857 c 0
 432 807 238 225 238 107 c 0
 238 59 273 26 329 26 c 0
 406 26 520 85 636 241 c 0
 680 300 716 381 751 481 c 2
 864 803 l 2
 881 852 883 869 930 869 c 2
 998 869 l 2
 1024 869 1039 868 1039 846 c 0
 1039 836 1037 822 1030 803 c 2
 955 587 l 2
 835 238 811 166 811 107 c 0
 811 55 836 28 900 28 c 0
 1150 28 1459 330 1459 580 c 0
 1459 675 1296 691 1296 779 c 0
 1296 837 1341 866 1393 866 c 0
 1460 866 1538 816 1538 712 c 0
 1538 340 1210 -23 852 -23 c 0
 689 -23 658 60 658 125 c 0
 658 166 670 198 670 198 c 1
 670 198 490 -32 269 -32 c 0
 132 -32 94 45 94 137 c 0
 94 221 125 316 142 380 c 2
 229 719 l 2
 237 753 247 786 254 818 c 1
 73 818 l 2
 54 818 49 832 49 844 c 0
EndSplineSet
Validated: 1
Layer: 2
SplineSet
432 856.799804688 m 4
 432 806.400390625 237.599609375 224.400390625 237.599609375 106.799804688 c 4
 237.599609375 58.7998046875 272.400390625 26.400390625 328.799804688 26.400390625 c 4
 405.599609375 26.400390625 519.599609375 85.2001953125 636 241.200195312 c 4
 680.400390625 300 716.400390625 381.599609375 751.200195312 481.200195312 c 6
 864 802.799804688 l 6
 880.799804688 852 883.200195312 868.799804688 930 868.799804688 c 6
 998.400390625 868.799804688 l 6
 1024.79980469 868.799804688 1039.20019531 867.599609375 1039.20019531 846 c 4
 1039.20019531 836.400390625 1036.79980469 822 1029.59960938 802.799804688 c 6
 955.200195312 586.799804688 l 6
 835.200195312 237.599609375 811.200195312 165.599609375 811.200195312 106.799804688 c 4
 811.200195312 55.2001953125 836.400390625 27.599609375 900 27.599609375 c 4
 1149.59960938 27.599609375 1459.20019531 330 1459.20019531 579.599609375 c 4
 1459.20019531 674.400390625 1296 691.200195312 1296 778.799804688 c 4
 1296 836.400390625 1341.59960938 866.400390625 1393.20019531 866.400390625 c 4
 1460.40039062 866.400390625 1538.40039062 816 1538.40039062 711.599609375 c 4
 1538.40039062 339.599609375 1209.59960938 -22.7998046875 852 -22.7998046875 c 4
 688.799804688 -22.7998046875 657.599609375 60 657.599609375 124.799804688 c 4
 657.599609375 165.599609375 669.599609375 198 669.599609375 198 c 5
 669.599609375 198 489.599609375 -32.400390625 268.799804688 -32.400390625 c 4
 132 -32.400390625 93.599609375 44.400390625 93.599609375 136.799804688 c 4
 93.599609375 220.799804688 124.799804688 316.799804688 141.599609375 380.400390625 c 6
 229.200195312 718.799804688 l 6
 237.599609375 752.400390625 247.200195312 786 254.400390625 818.400390625 c 5
 73.2001953125 818.400390625 l 6
 54 818.400390625 49.2001953125 831.599609375 49.2001953125 843.599609375 c 4
 49.2001953125 867.599609375 66 872.400390625 73.2001953125 872.400390625 c 6
 406.799804688 872.400390625 l 6
 424.799804688 872.400390625 432 870 432 856.799804688 c 4
EndSplineSet
EndChar

StartChar: v
Encoding: 118 118 7
Width: 1159
VWidth: 0
Flags: W
HStem: -30.6195 68.6195<365.257 584.454> 761 90<258.712 522.5>
VStem: 185 170<43.4486 223.914> 420 191<629.304 803.5> 960 157<463.726 694>
LayerCount: 3
Fore
SplineSet
113 710 m 0
 113 752 307 851 488 851 c 0
 557 851 611 832 611 775 c 0
 611 685 355 169 355 107 c 0
 355 55 380 38 444 38 c 0
 694 38 960 381 960 504 c 0
 960 649 859 632 859 745 c 0
 859 805 920 834 961 834 c 0
 1043 834 1117 743 1117 645 c 0
 1117 528.009192716 1002.60990196 193.578383594 704 38.3201977053 c 0
 624.433566782 -3.04929472642 523.832600168 -30.6195037487 379.969991027 -30.6195037487 c 0
 274.544183069 -30.6195037487 185 -2.942434079 185 79 c 0
 185 187 420 631 420 705 c 0
 420 746 397 761 359 761 c 0
 300 761 216 724 175 695 c 0
 163 686 153 680 142 680 c 0
 123 680 113 709 113 710 c 0
EndSplineSet
Validated: 524289
EndChar

StartChar: u
Encoding: 117 117 8
Width: 1240
VWidth: 0
Flags: WO
HStem: -25 118<222 456.148> 0 93<816.304 1035.65> 786 74<70.1739 345>
VStem: 91 175<99.208 284.001> 719 163<51.5 264.145>
LayerCount: 3
Back
SplineSet
107 860 m 6
 499 860 l 6
 525 860 532 853 532 841 c 4
 532 791 266 237 266 160 c 4
 266 112 301 93 357 93 c 4
 500 93 630 177 713 291 c 4
 825 446 918 683 975 813 c 4
 991 849 1002 879 1054 879 c 6
 1106 879 l 6
 1134 879 1150 877 1150 857 c 4
 1150 797 882 267 882 153 c 4
 882 110 910 93 947 93 c 4
 1031 93 1089 152 1129 187 c 4
 1146 202 1159 214 1170 214 c 4
 1173 214 1200 208 1200 185 c 4
 1200 138 1034 0 849 0 c 4
 749 0 719 27 719 76 c 4
 719 138 736 161 753 219 c 5
 627 84 406 -25 269 -25 c 4
 175 -25 91 17 91 117 c 4
 91 173 118 252 173 380 c 6
 296 668 l 6
 310 700 329 746 345 786 c 5
 97 786 l 6
 79 786 70 801 70 818 c 4
 70 838 76 860 107 860 c 6
EndSplineSet
Fore
SplineSet
107 860 m 2xb8
 499 860 l 2
 525 860 532 853 532 841 c 0
 532 791 266 237 266 160 c 0
 266 112 301 93 357 93 c 0xb8
 500 93 630 177 713 291 c 0
 825 446 908 664 965 794 c 0
 981 830 992 860 1044 860 c 2
 1096 860 l 2
 1124 860 1140 858 1140 838 c 0
 1140 778 882 267 882 153 c 0
 882 110 910 93 947 93 c 0
 1031 93 1089 152 1129 187 c 0
 1146 202 1159 214 1170 214 c 0
 1173 214 1200 208 1200 185 c 0
 1200 138 1034 0 849 0 c 0x78
 749 0 719 27 719 76 c 0
 719 138 736 161 753 219 c 1
 627 84 406 -25 269 -25 c 0
 175 -25 91 17 91 117 c 0
 91 173 118 252 173 380 c 2
 296 668 l 2
 310 700 329 746 345 786 c 1
 97 786 l 2
 79 786 70 801 70 818 c 0
 70 838 76 860 107 860 c 2xb8
EndSplineSet
Validated: 1
EndChar

StartChar: t
Encoding: 116 116 9
Width: 745
VWidth: 0
Flags: W
HStem: -33 109<164 392.579> 779 81<107.028 332 529 760.808>
VStem: 71 190<79.1674 248.895>
LayerCount: 3
Fore
SplineSet
579 224 m 0
 592 233 602 238 607 238 c 0
 622 238 636 224 636 205 c 0
 636 195 632 184 623 174 c 0
 566 111 388 -33 217 -33 c 0
 111 -33 71 14 71 84 c 0
 71 133 93 197 125 275 c 2
 332 779 l 1
 297 779 143 779 130 779 c 0
 109 779 107 801 107 818 c 0
 107 829 110 860 147 860 c 0
 154 860 325 860 366 860 c 1
 472 1127 l 2
 484 1159 492 1160 528 1160 c 2
 596 1160 l 2
 616 1160 633 1159 633 1142 c 0
 633 1138 632 1133 630 1127 c 2
 529 860 l 1
 589 860 718 859 728 859 c 0
 754 859 762 853 762 837 c 0
 762 793 745 779 725 779 c 0
 715 779 563 779 495 779 c 1
 402 556 l 2
 304 333 261 223 261 155 c 0
 261 97 287 76 321 76 c 0
 402 76 539 197 579 224 c 0
EndSplineSet
Validated: 1
Layer: 2
SplineSet
579 238 m 4
 592 247 602 252 607 252 c 4
 622 252 636 238 636 219 c 4
 636 209 632 198 623 188 c 4
 566 125 388 -19 217 -19 c 4
 111 -19 71 28 71 98 c 4
 71 147 93 211 125 289 c 6
 332 793 l 5
 297 793 143 789 130 789 c 4
 109 789 107 811 107 828 c 4
 107 839 110 881 147 881 c 4
 154 881 325 874 366 874 c 5
 472 1141 l 6
 484 1173 492 1174 528 1174 c 6
 596 1174 l 6
 616 1174 633 1173 633 1156 c 4
 633 1152 632 1147 630 1141 c 6
 529 874 l 5
 589 874 718 880 728 880 c 4
 754 880 762 874 762 858 c 4
 762 814 745 789 725 789 c 4
 715 789 563 793 495 793 c 5
 402 570 l 6
 304 347 261 237 261 169 c 4
 261 111 287 90 321 90 c 4
 402 90 539 211 579 238 c 4
EndSplineSet
EndChar

StartChar: a
Encoding: 97 97 10
Width: 1108
VWidth: 0
Flags: W
HStem: -25 127<201.5 395.626> -10 98<679.321 889.666> 780 90<496.99 723.142>
VStem: 59 174<109.963 379.651> 753 270<609.5 859>
LayerCount: 3
Fore
SplineSet
59 159 m 0xb8
 59 488 373 870 609 870 c 0
 752 870 792 756 798 744 c 1
 836 822 852 870 917 870 c 2
 983 870 l 2
 1008 870 1023 869 1023 849 c 0
 1023 797 735 308 735 153 c 0
 735 115 750 88 789 88 c 0
 890 88 1014 227 1014 227 c 0
 1027 240 1039 245 1049 245 c 0
 1066 245 1077 231 1077 215 c 0
 1077 151 903 -10 711 -10 c 0x78
 622 -10 574 31 574 79 c 0
 574 102 575 125 576 138 c 1
 575 137 385 -25 244 -25 c 0
 159 -25 59 34 59 159 c 0xb8
233 226 m 0
 233 137 259 102 318 102 c 0xb8
 419 102 559 190 637 313 c 0
 700 412 753 588 753 631 c 0
 753 717 715 780 615 780 c 0
 423 780 233 416 233 226 c 0
EndSplineSet
Validated: 1
EndChar

StartChar: b
Encoding: 98 98 11
Width: 951
VWidth: 0
Flags: W
HStem: -36 85<186.922 482.519> 804 60<583.313 753.908> 1296 74<221.365 517>
VStem: 76.2935 184.706<61.4348 253.632> 797 184<447.037 775.31>
LayerCount: 3
Fore
SplineSet
76.2935204844 92.7013349042 m 0
 76.2935204844 204 454.43359375 1133.16113281 517 1296 c 1
 241 1296 l 2
 223 1296 221 1324 221 1332 c 2
 221 1337 l 2
 221 1368 242 1370 255 1370 c 2
 662 1370 l 2
 682 1370 691 1367 691 1355 c 0
 691 1345 688 1329 679 1307 c 2
 461 768 l 1
 461 768 572 864 745 864 c 0
 919 864 981 778 981 649 c 0
 981 331 643 -36 255 -36 c 0
 118.843924563 -36 76.2935204844 18.3296076148 76.2935204844 92.7013349042 c 0
261 165 m 0
 261 82 298 49 353 49 c 0
 489 49 670 206 750 429 c 0
 774 495 797 566 797 641 c 0
 797 749 751 804 679 804 c 0
 621.056791496 804 467.506729973 766.143480638 376.975899098 552.000002883 c 0
 333.874106471 450.852624973 261 277.683558301 261 165 c 0
EndSplineSet
Validated: 524289
EndChar

StartChar: c
Encoding: 99 99 12
Width: 758
VWidth: 0
Flags: W
HStem: 499 259<362.212 549.659>
VStem: 328 254<531.492 722.946>
LayerCount: 3
Fore
SplineSet
328 622 m 0
 328 704 392 758 464 758 c 0
 531 758 582 698 582 631 c 0
 582 559 527 499 455 499 c 0
 387 499 328 554 328 622 c 0
EndSplineSet
Validated: 1
EndChar

StartChar: d
Encoding: 100 100 13
Width: 758
VWidth: 0
Flags: W
HStem: 499 259<362.212 549.659>
VStem: 328 254<531.492 722.946>
LayerCount: 3
Fore
SplineSet
328 622 m 0
 328 704 392 758 464 758 c 0
 531 758 582 698 582 631 c 0
 582 559 527 499 455 499 c 0
 387 499 328 554 328 622 c 0
EndSplineSet
Validated: 1
EndChar

StartChar: e
Encoding: 101 101 14
Width: 758
VWidth: 0
Flags: W
HStem: 499 259<362.212 549.659>
VStem: 328 254<531.492 722.946>
LayerCount: 3
Fore
SplineSet
328 622 m 0
 328 704 392 758 464 758 c 0
 531 758 582 698 582 631 c 0
 582 559 527 499 455 499 c 0
 387 499 328 554 328 622 c 0
EndSplineSet
Validated: 1
EndChar

StartChar: f
Encoding: 102 102 15
Width: 758
VWidth: 0
Flags: W
HStem: 499 259<362.212 549.659>
VStem: 328 254<531.492 722.946>
LayerCount: 3
Fore
SplineSet
328 622 m 0
 328 704 392 758 464 758 c 0
 531 758 582 698 582 631 c 0
 582 559 527 499 455 499 c 0
 387 499 328 554 328 622 c 0
EndSplineSet
Validated: 1
EndChar

StartChar: g
Encoding: 103 103 16
Width: 758
VWidth: 0
Flags: W
HStem: 499 259<362.212 549.659>
VStem: 328 254<531.492 722.946>
LayerCount: 3
Fore
SplineSet
328 622 m 0
 328 704 392 758 464 758 c 0
 531 758 582 698 582 631 c 0
 582 559 527 499 455 499 c 0
 387 499 328 554 328 622 c 0
EndSplineSet
Validated: 1
EndChar

StartChar: h
Encoding: 104 104 17
Width: 758
VWidth: 0
Flags: W
HStem: 499 259<362.212 549.659>
VStem: 328 254<531.492 722.946>
LayerCount: 3
Fore
SplineSet
328 622 m 0
 328 704 392 758 464 758 c 0
 531 758 582 698 582 631 c 0
 582 559 527 499 455 499 c 0
 387 499 328 554 328 622 c 0
EndSplineSet
Validated: 1
EndChar

StartChar: i
Encoding: 105 105 18
Width: 758
VWidth: 0
Flags: W
HStem: 499 259<362.212 549.659>
VStem: 328 254<531.492 722.946>
LayerCount: 3
Fore
SplineSet
328 622 m 0
 328 704 392 758 464 758 c 0
 531 758 582 698 582 631 c 0
 582 559 527 499 455 499 c 0
 387 499 328 554 328 622 c 0
EndSplineSet
Validated: 1
EndChar

StartChar: j
Encoding: 106 106 19
Width: 758
VWidth: 0
Flags: W
HStem: 499 259<362.212 549.659>
VStem: 328 254<531.492 722.946>
LayerCount: 3
Fore
SplineSet
328 622 m 0
 328 704 392 758 464 758 c 0
 531 758 582 698 582 631 c 0
 582 559 527 499 455 499 c 0
 387 499 328 554 328 622 c 0
EndSplineSet
Validated: 1
EndChar

StartChar: k
Encoding: 107 107 20
Width: 758
VWidth: 0
Flags: W
HStem: 499 259<362.212 549.659>
VStem: 328 254<531.492 722.946>
LayerCount: 3
Fore
SplineSet
328 622 m 0
 328 704 392 758 464 758 c 0
 531 758 582 698 582 631 c 0
 582 559 527 499 455 499 c 0
 387 499 328 554 328 622 c 0
EndSplineSet
Validated: 1
EndChar

StartChar: l
Encoding: 108 108 21
Width: 758
VWidth: 0
Flags: W
HStem: 499 259<362.212 549.659>
VStem: 328 254<531.492 722.946>
LayerCount: 3
Fore
SplineSet
328 622 m 0
 328 704 392 758 464 758 c 0
 531 758 582 698 582 631 c 0
 582 559 527 499 455 499 c 0
 387 499 328 554 328 622 c 0
EndSplineSet
Validated: 1
EndChar

StartChar: m
Encoding: 109 109 22
Width: 758
VWidth: 0
Flags: W
HStem: 499 259<362.212 549.659>
VStem: 328 254<531.492 722.946>
LayerCount: 3
Fore
SplineSet
328 622 m 0
 328 704 392 758 464 758 c 0
 531 758 582 698 582 631 c 0
 582 559 527 499 455 499 c 0
 387 499 328 554 328 622 c 0
EndSplineSet
Validated: 1
EndChar

StartChar: n
Encoding: 110 110 23
Width: 758
VWidth: 0
Flags: W
HStem: 499 259<362.212 549.659>
VStem: 328 254<531.492 722.946>
LayerCount: 3
Fore
SplineSet
328 622 m 0
 328 704 392 758 464 758 c 0
 531 758 582 698 582 631 c 0
 582 559 527 499 455 499 c 0
 387 499 328 554 328 622 c 0
EndSplineSet
Validated: 1
EndChar

StartChar: o
Encoding: 111 111 24
Width: 758
VWidth: 0
Flags: W
HStem: 499 259<362.212 549.659>
VStem: 328 254<531.492 722.946>
LayerCount: 3
Fore
SplineSet
328 622 m 0
 328 704 392 758 464 758 c 0
 531 758 582 698 582 631 c 0
 582 559 527 499 455 499 c 0
 387 499 328 554 328 622 c 0
EndSplineSet
Validated: 1
EndChar

StartChar: p
Encoding: 112 112 25
Width: 758
VWidth: 0
Flags: W
HStem: 499 259<362.212 549.659>
VStem: 328 254<531.492 722.946>
LayerCount: 3
Fore
SplineSet
328 622 m 0
 328 704 392 758 464 758 c 0
 531 758 582 698 582 631 c 0
 582 559 527 499 455 499 c 0
 387 499 328 554 328 622 c 0
EndSplineSet
Validated: 1
EndChar

StartChar: q
Encoding: 113 113 26
Width: 758
VWidth: 0
Flags: W
HStem: 499 259<362.212 549.659>
VStem: 328 254<531.492 722.946>
LayerCount: 3
Fore
SplineSet
328 622 m 0
 328 704 392 758 464 758 c 0
 531 758 582 698 582 631 c 0
 582 559 527 499 455 499 c 0
 387 499 328 554 328 622 c 0
EndSplineSet
Validated: 1
EndChar

StartChar: r
Encoding: 114 114 27
Width: 946
VWidth: 0
Flags: W
HStem: 0 21G<110.5 225.5> 786 74<90.1709 332> 801 87<693.095 783>
VStem: 768 193<656.156 800.669>
LayerCount: 3
Fore
SplineSet
76 25 m 0xb0
 76 36 81 51 89 73 c 2
 332 786 l 1
 115 786 l 2
 105 786 90 794 90 828 c 0
 90 845 100 860 132 860 c 2
 490 860 l 2xd0
 520 860 520 855 520 848 c 0
 520 840 501 809 445 646 c 1
 543 738 684 888 840 888 c 0
 906 888 961 844 961 772 c 0
 961 676 902 629 849 629 c 0
 807 629 768 659 768 720 c 0
 768 760 783 801 783 801 c 1
 738 801 497 686 378 391 c 0
 224 8 271 0 180 0 c 2
 132 0 l 2
 89 0 76 0 76 25 c 0xb0
EndSplineSet
Validated: 1
EndChar

StartChar: s
Encoding: 115 115 28
Width: 817
VWidth: 0
Flags: W
HStem: -22 78<263.043 471.837> 785 85<395.754 575.807>
VStem: 222 145<558.986 732.425> 507 156<107.994 262.9>
LayerCount: 3
Fore
SplineSet
42 160 m 0
 42 214 78 240 120 240 c 0
 156 240 198 201 232 133 c 0
 261 75 323 56 371 56 c 0
 440 56 507 102 507 167 c 0
 507 317 222 355 222 605 c 0
 222 762 400 870 561 870 c 0
 665 870 771 814 771 725 c 0
 771 673 736 636 694 636 c 0
 593 636 618 785 479 785 c 0
 413 785 367 725 367 667 c 0
 367 486 663 433 663 245 c 0
 663 76 494 -22 321 -22 c 0
 189 -22 42 35 42 160 c 0
EndSplineSet
Validated: 1
EndChar

